<svg id="Layer_1" data-name="Layer 1" xmlns="http://www.w3.org/2000/svg" viewBox="0 0 11.06 17.83"><defs><style>.cls-1{fill:#cfd1d2;}.cls-2,.cls-4{fill:none;stroke-miterlimit:10;}.cls-2{stroke:#0b6eb6;stroke-width:0.75px;}.cls-3{fill:#303433;opacity:0.49;}.cls-4{stroke:#070808;stroke-linecap:round;}</style></defs><title>hh</title><path class="cls-1" d="M6.81,21.12A3.85,3.85,0,0,1,4.9,17.18a2.9,2.9,0,0,1,.26-1,5.87,5.87,0,0,0-.27-4.42,7.63,7.63,0,0,1-.08-3.84,5.46,5.46,0,0,1,10-1.62l.15.26a6.23,6.23,0,0,1-.46,6.64,3.44,3.44,0,0,1-1.73,1.34s-.77.13-1.29,4.19A3.17,3.17,0,0,1,10,21l-.08,0A3.14,3.14,0,0,1,6.81,21.12Z" transform="translate(-4.6 -3.66)"/><path class="cls-2" d="M7.55,10a3.67,3.67,0,0,1,2.64-.48,2.55,2.55,0,0,1,1.9,2.69c-.07,1.1-.44,2.43-1.75,2.49a2.32,2.32,0,0,0-.72,1.7A3.5,3.5,0,0,1,9.27,18l-.09.17a1,1,0,0,1-1.83-.13,3.82,3.82,0,0,1-.17-2,5.05,5.05,0,0,1,.12-.56l.24-.95a4.14,4.14,0,0,1,.69-1.47c.31-.4.5-1-.67-1.53a.73.73,0,0,1-.54-1A1.16,1.16,0,0,1,7.55,10Z" transform="translate(-4.6 -3.66)"/><path class="cls-2" d="M13.55,10.52A4.21,4.21,0,0,0,11.36,6.9,3.17,3.17,0,0,0,8,7,2.5,2.5,0,0,0,7,9.66l0,1" transform="translate(-4.6 -3.66)"/><path class="cls-3" d="M6.81,21.12A3.85,3.85,0,0,1,4.9,17.18a2.9,2.9,0,0,1,.26-1,5.87,5.87,0,0,0-.27-4.42,7.63,7.63,0,0,1-.08-3.84,5.46,5.46,0,0,1,10-1.62l.15.26a6.23,6.23,0,0,1-.46,6.64,3.44,3.44,0,0,1-1.73,1.34s-.77.13-1.29,4.19A3.17,3.17,0,0,1,10,21l-.08,0A3.14,3.14,0,0,1,6.81,21.12Z" transform="translate(-4.6 -3.66)"/><line class="cls-4" x1="1.3" y1="3.23" x2="9.76" y2="14.61"/><line class="cls-4" x1="10.13" y1="3.52" x2="0.93" y2="14.31"/></svg>