<svg id="Layer_1" data-name="Layer 1" xmlns="http://www.w3.org/2000/svg" viewBox="0 0 7.87 10.32"><defs><style>.cls-1{fill:#fff;}.cls-2,.cls-3{fill:none;stroke-linecap:round;stroke-linejoin:round;stroke-width:0.25px;}.cls-2{stroke:#0b6eb6;}.cls-3{stroke:#fff;}</style></defs><title>mm</title><path class="cls-1" d="M5.37,10.48A2.18,2.18,0,0,0,6.65,8.13a1.77,1.77,0,0,0-.15-.6A3.37,3.37,0,0,1,6.66,5a4.53,4.53,0,0,0,0-2.17A3.12,3.12,0,0,0,1,1.86a2.52,2.52,0,0,0-.21.4,4,4,0,0,0,.44,3.61,2.11,2.11,0,0,0,.92.82h0c.08,0,.63,0,.75,2.31a1.73,1.73,0,0,0,.86,1.35l.3.15A1.71,1.71,0,0,0,5.37,10.48Z" transform="translate(-0.49 -0.31)"/><path class="cls-2" d="M5.12,4A2.11,2.11,0,0,0,3.6,3.71,1.48,1.48,0,0,0,2.51,5.26c0,.63.25,1.4,1,1.44a1.31,1.31,0,0,1,.41,1,2,2,0,0,0,.2.93l.06.1a.59.59,0,0,0,1-.07,2.17,2.17,0,0,0,.08-1.2,1.84,1.84,0,0,0-.05-.25l-.14-.55a2.38,2.38,0,0,0-.4-.85c-.18-.23-.29-.59.39-.88a.43.43,0,0,0,.31-.56A.68.68,0,0,0,5.12,4Z" transform="translate(-0.49 -0.31)"/><path class="cls-2" d="M1.67,4.29A2.41,2.41,0,0,1,2.93,2.21a1.83,1.83,0,0,1,1.95.07A1.44,1.44,0,0,1,5.46,3.8l0,.55" transform="translate(-0.49 -0.31)"/><path class="cls-3" d="M7.12,5s-1,1.67,0,2.86" transform="translate(-0.49 -0.31)"/><path class="cls-3" d="M7.51,5.2a2.36,2.36,0,0,0,0,2.39" transform="translate(-0.49 -0.31)"/><path class="cls-3" d="M7.9,5.37s-.8,1.21,0,2.06" transform="translate(-0.49 -0.31)"/><path class="cls-3" d="M8.24,5.67s-.57.85,0,1.46" transform="translate(-0.49 -0.31)"/></svg>