<svg id="Layer_1" data-name="Layer 1" xmlns="http://www.w3.org/2000/svg" viewBox="0 0 27.73 21.11"><defs><style>.cls-1{fill:#fff;}</style></defs><title>Untitled-2</title><path class="cls-1" d="M13.69,9.68c-4.36,0-7.89,3-7.89,6.75a6.35,6.35,0,0,0,2.64,5A20.58,20.58,0,0,1,5.3,24.55S9,24.1,10.83,22.72a9.21,9.21,0,0,0,2.86.46c4.36,0,7.89-3,7.89-6.75S18.05,9.68,13.69,9.68Z" transform="translate(-5.3 -9.68)"/><path class="cls-1" d="M33,30.79A20,20,0,0,1,29.44,28c.1-.12.2-.25.29-.38,2.07-3.1.82-7.57-2.8-10a8.8,8.8,0,0,0-4.57-1.5c0,.12,0,.24,0,.36,0,3.52-2.8,6.49-6.56,7.31a8.47,8.47,0,0,0,3.61,5.05,8,8,0,0,0,8.26.65A18,18,0,0,0,33,30.79Z" transform="translate(-5.3 -9.68)"/></svg>