<svg id="Layer_1" data-name="Layer 1" xmlns="http://www.w3.org/2000/svg" viewBox="0 0 8.48 6.72"><defs><style>.cls-1{fill:#fffdfa;}</style></defs><title>hf</title><path class="cls-1" d="M2.67,1.52A2.38,2.38,0,0,0,.13,3.7,2,2,0,0,0,1,5.31a1.76,1.76,0,0,1-.51.58S.44,6,.41,6a.18.18,0,0,0,.1,0,1.86,1.86,0,0,0,1.24-.32,3,3,0,0,0,.92.15A2.38,2.38,0,0,0,5.21,3.7,2.39,2.39,0,0,0,2.67,1.52Z" transform="translate(-0.13 -1.52)"/><path class="cls-1" d="M8.58,8.21s.07-.05,0-.12a5.08,5.08,0,0,1-.81-.69l.09-.12a2.38,2.38,0,0,0-.9-3.22,2.88,2.88,0,0,0-1.47-.48V3.7A2.53,2.53,0,0,1,3.35,6.05,2.67,2.67,0,0,0,4.51,7.67a2.58,2.58,0,0,0,2.66.22,4.52,4.52,0,0,0,1.19.35Z" transform="translate(-0.13 -1.52)"/></svg>